<?xml version="1.0" standalone="no"?>
<!DOCTYPE svg PUBLIC "-//W3C//DTD SVG 20010904//EN"
 "http://www.w3.org/TR/2001/REC-SVG-20010904/DTD/svg10.dtd">
<svg version="1.0" xmlns="http://www.w3.org/2000/svg"
 width="484.000000pt" height="484.000000pt" viewBox="0 0 484.000000 484.000000"
 preserveAspectRatio="xMidYMid meet">
<metadata>
Created by potrace 1.11, written by Peter Selinger 2001-2013
</metadata>
<g transform="translate(0.000000,484.000000) scale(0.100000,-0.100000)"
fill="#000000" stroke="none">
<path d="M2292 4824 c4 -5 -27 -8 -74 -6 -43 1 -77 -2 -74 -6 2 -4 -11 -6 -31
-4 -27 4 -34 1 -28 -8 5 -8 4 -11 -3 -6 -14 8 -123 -4 -117 -14 2 -4 -7 -5
-22 -2 -16 3 -24 1 -20 -5 4 -6 -4 -8 -20 -5 -16 3 -24 1 -20 -5 4 -6 -4 -8
-20 -5 -16 3 -24 1 -20 -5 4 -6 -4 -8 -20 -5 -16 3 -24 1 -20 -5 4 -6 -4 -8
-20 -5 -16 3 -24 1 -20 -5 4 -6 -4 -8 -20 -5 -17 3 -24 1 -19 -6 4 -6 -2 -8
-16 -4 -16 4 -19 2 -13 -8 5 -9 4 -11 -4 -6 -14 9 -53 -2 -46 -14 3 -4 -5 -6
-17 -2 -13 3 -19 1 -15 -5 5 -7 -1 -9 -15 -5 -16 4 -19 2 -13 -8 5 -9 4 -11
-4 -6 -14 9 -53 -2 -46 -14 3 -4 -5 -6 -17 -2 -14 3 -19 1 -14 -6 4 -8 2 -10
-7 -6 -14 5 -277 -120 -277 -132 0 -3 5 -2 12 2 7 4 8 3 4 -4 -4 -6 -12 -9
-19 -6 -7 2 -21 -3 -32 -12 -11 -8 -14 -12 -6 -8 9 4 12 3 7 -4 -4 -6 -12 -9
-19 -6 -7 2 -21 -3 -32 -12 -11 -8 -14 -12 -6 -8 9 4 12 3 7 -4 -4 -6 -12 -9
-19 -6 -12 4 -127 -70 -127 -83 0 -3 8 1 18 8 15 13 16 12 3 -3 -7 -10 -17
-15 -23 -12 -12 7 -39 -16 -32 -27 3 -5 -1 -7 -8 -4 -16 6 -181 -132 -173
-145 3 -6 0 -7 -8 -4 -29 11 -375 -410 -363 -442 3 -7 0 -16 -6 -20 -7 -5 -8
-2 -4 7 4 8 0 5 -8 -6 -9 -11 -14 -25 -12 -32 3 -7 0 -15 -6 -19 -7 -5 -8 -2
-4 7 4 8 0 5 -8 -6 -9 -11 -14 -25 -12 -32 3 -7 0 -15 -6 -19 -7 -5 -8 -2 -4
7 4 8 0 5 -8 -6 -9 -11 -14 -25 -12 -32 3 -7 0 -15 -6 -19 -7 -4 -8 -3 -4 4 4
7 5 12 2 12 -12 0 -66 -121 -60 -132 4 -6 3 -8 -3 -5 -13 8 -26 -20 -16 -35 4
-7 1 -8 -7 -3 -10 6 -12 4 -7 -9 4 -9 3 -15 -2 -12 -12 8 -35 -50 -25 -65 5
-8 3 -9 -6 -4 -10 6 -12 4 -7 -9 4 -9 3 -15 -2 -12 -11 7 -24 -41 -15 -56 5
-7 2 -8 -6 -3 -10 6 -12 3 -8 -13 4 -12 2 -20 -2 -17 -12 7 -23 -32 -14 -46 5
-8 3 -9 -6 -4 -10 6 -12 3 -8 -13 4 -14 2 -20 -4 -16 -7 5 -9 -2 -6 -19 3 -16
1 -24 -5 -20 -6 4 -8 -4 -5 -20 3 -16 1 -24 -5 -20 -6 4 -8 -4 -5 -20 3 -16 1
-24 -5 -20 -6 4 -8 -4 -5 -20 3 -16 1 -24 -5 -20 -6 4 -8 -4 -5 -20 3 -15 2
-24 -2 -22 -9 6 -21 -80 -16 -117 2 -16 -1 -25 -7 -21 -6 3 -8 -10 -5 -36 2
-22 0 -41 -5 -41 -5 0 -7 -38 -5 -84 2 -46 0 -82 -4 -79 -5 2 -8 -53 -8 -122
0 -69 3 -124 8 -122 4 3 6 -33 4 -80 -2 -46 1 -83 5 -80 4 3 6 -15 4 -40 -2
-25 1 -43 5 -40 5 3 8 -15 7 -39 -1 -25 2 -42 6 -40 4 3 5 -9 3 -26 -3 -19 -1
-28 5 -25 6 4 8 -4 5 -20 -4 -19 -2 -24 8 -18 9 5 11 4 6 -3 -9 -14 3 -84 14
-77 4 2 5 -7 2 -22 -3 -16 -1 -24 5 -20 6 4 8 -4 5 -20 -3 -17 -1 -24 6 -19 6
4 8 -2 4 -16 -4 -16 -2 -19 8 -13 9 5 11 4 6 -4 -9 -14 2 -53 14 -46 4 3 6 -5
2 -17 -3 -13 -1 -19 5 -15 7 5 9 -1 5 -15 -4 -16 -2 -19 8 -13 9 5 11 4 6 -4
-9 -15 3 -53 15 -46 5 3 6 0 3 -8 -5 -14 110 -257 122 -257 3 0 2 5 -2 12 -4
7 -3 8 4 4 6 -4 9 -12 6 -19 -2 -7 3 -21 12 -32 8 -11 12 -14 8 -6 -4 9 -3 12
4 7 6 -4 9 -12 6 -19 -2 -7 3 -21 12 -32 8 -11 12 -14 8 -6 -4 9 -3 12 4 7 6
-4 9 -12 6 -19 -2 -7 3 -21 12 -32 8 -11 12 -14 8 -6 -4 9 -3 12 4 7 6 -4 9
-12 6 -19 -2 -7 3 -21 12 -32 8 -11 12 -14 8 -6 -4 9 -3 12 4 7 6 -4 9 -13 6
-20 -3 -7 3 -19 12 -27 15 -12 17 -12 9 0 -5 10 -4 12 4 7 6 -4 9 -12 6 -17
-7 -10 91 -142 160 -214 26 -27 41 -41 34 -30 -13 18 -12 19 3 7 9 -8 15 -19
12 -25 -6 -16 81 -101 94 -93 5 3 16 -2 23 -12 13 -16 12 -16 -6 -2 -11 8 -4
-3 15 -23 19 -21 40 -35 46 -33 7 3 18 -3 26 -12 12 -16 11 -16 -7 -2 -14 10
-13 7 5 -13 13 -15 30 -25 36 -23 7 3 18 -3 26 -12 12 -16 11 -16 -7 -2 -19
14 -19 14 -6 -3 8 -10 20 -16 28 -13 8 3 12 2 9 -3 -7 -11 20 -34 32 -27 6 3
16 -2 23 -12 13 -15 12 -16 -3 -3 -10 7 -18 11 -18 8 0 -13 115 -87 127 -83 7
3 15 0 19 -6 5 -7 2 -8 -7 -4 -8 4 -5 0 6 -8 11 -9 25 -14 32 -12 7 3 12 0 10
-7 -1 -7 6 -11 15 -11 10 1 15 -3 11 -9 -4 -6 0 -8 10 -4 9 3 19 1 23 -5 5 -7
2 -8 -7 -4 -8 4 -5 0 6 -8 11 -9 25 -14 32 -12 7 3 15 0 19 -6 5 -7 2 -8 -7
-4 -8 4 -5 0 6 -8 11 -9 25 -14 33 -11 7 2 11 1 8 -4 -7 -11 22 -23 36 -14 7
4 8 1 3 -7 -6 -10 -4 -12 9 -7 9 4 15 3 12 -1 -7 -12 83 -54 96 -46 6 4 8 2 4
-4 -8 -13 29 -26 45 -16 7 4 9 3 5 -4 -8 -13 29 -26 45 -16 8 5 9 3 4 -6 -6
-10 -3 -12 13 -8 14 4 20 2 15 -5 -4 -6 2 -8 15 -5 12 4 20 2 17 -2 -7 -12 32
-23 46 -14 8 5 9 3 4 -6 -6 -10 -3 -12 13 -8 14 4 20 2 16 -4 -5 -7 2 -9 19
-6 16 3 24 1 20 -5 -4 -6 4 -8 20 -5 16 3 24 1 20 -5 -4 -6 4 -8 20 -5 16 3
24 1 20 -5 -4 -6 4 -8 20 -5 16 3 24 1 20 -5 -4 -6 4 -8 20 -5 15 3 24 1 21
-3 -3 -5 7 -10 23 -10 15 -1 46 -4 68 -7 22 -3 59 -5 83 -6 23 -1 42 -5 42 -9
0 -5 38 -7 84 -5 46 2 82 0 79 -4 -10 -17 464 3 477 20 3 4 22 7 43 8 78 2 98
4 93 13 -3 4 6 6 21 3 16 -3 24 -1 20 5 -4 6 4 8 20 5 16 -3 24 -1 20 5 -4 6
4 8 20 5 16 -3 24 -1 20 5 -4 6 4 8 20 5 16 -3 24 -1 20 5 -4 6 4 8 20 5 17
-3 24 -1 19 6 -4 6 2 8 16 4 16 -4 19 -2 13 8 -5 9 -4 11 4 6 14 -9 53 2 46
14 -3 4 5 6 17 2 13 -3 19 -1 15 5 -5 7 1 9 15 5 16 -4 19 -2 13 8 -5 9 -4 11
4 6 15 -9 53 3 46 15 -3 5 0 6 8 3 14 -5 257 110 257 122 0 3 -5 2 -12 -2 -7
-4 -8 -3 -4 4 4 6 12 9 19 6 7 -2 21 3 32 12 11 8 14 12 6 8 -9 -4 -12 -3 -7
4 4 6 12 9 19 6 7 -2 21 3 32 12 11 8 14 12 6 8 -9 -4 -12 -3 -7 4 4 6 12 9
19 6 7 -2 21 3 32 12 11 8 14 12 6 8 -9 -4 -12 -3 -7 4 4 6 14 8 23 5 10 -4
14 -2 10 4 -4 6 1 10 11 9 9 0 16 5 14 12 -1 8 2 11 8 7 22 -14 406 305 396
330 -2 7 12 28 32 46 l37 34 -30 -36 c-16 -19 -10 -15 14 10 94 98 258 331
247 350 -4 5 -1 13 5 17 8 5 10 2 5 -7 -4 -8 0 -5 8 6 9 11 14 25 12 32 -3 7
0 15 6 19 7 4 8 3 4 -4 -4 -7 -5 -12 -2 -12 12 0 66 121 60 132 -4 6 -3 8 3 5
13 -8 26 20 16 35 -4 7 -1 8 7 3 10 -6 12 -4 7 9 -4 9 -3 15 2 12 12 -8 45 70
36 85 -6 8 -4 10 5 4 10 -6 12 -3 8 13 -4 12 -2 20 2 17 12 -7 23 32 14 46 -5
8 -3 9 6 4 10 -6 12 -3 8 13 -4 14 -2 20 5 15 6 -4 8 2 5 15 -4 12 -2 20 2 17
12 -7 23 32 14 46 -5 8 -3 9 6 4 10 -6 12 -3 8 13 -4 14 -2 20 4 16 7 -5 9 2
6 19 -3 16 -1 24 5 20 6 -4 8 4 5 20 -3 16 -1 24 5 20 6 -4 8 4 5 20 -3 16 -1
24 5 20 6 -4 8 4 5 20 -3 16 -1 24 5 20 6 -4 8 4 5 20 -3 16 -1 24 5 20 6 -4
8 4 5 20 -3 15 -2 25 1 22 11 -6 44 226 40 282 -2 28 -1 49 4 46 4 -2 7 52 7
121 0 69 -3 126 -7 126 -5 0 -7 34 -5 76 2 42 0 74 -5 71 -5 -3 -7 10 -5 30 4
27 1 34 -8 28 -8 -5 -11 -4 -6 3 8 13 -4 123 -14 117 -3 -2 -4 10 -2 27 3 19
1 28 -5 25 -6 -4 -8 4 -5 20 3 16 1 24 -5 20 -6 -4 -8 4 -5 20 3 16 1 24 -5
20 -6 -4 -8 4 -5 20 3 16 1 24 -5 20 -6 -4 -8 4 -5 20 3 16 1 24 -5 20 -6 -4
-8 3 -6 17 3 13 -2 30 -11 38 -8 9 -13 18 -10 21 9 8 -6 48 -16 42 -4 -3 -6 5
-2 17 3 13 1 19 -5 15 -7 -5 -9 1 -5 15 3 13 1 19 -5 15 -7 -5 -9 1 -5 15 3
11 1 19 -4 16 -5 -4 -10 5 -11 19 -1 26 -137 313 -148 313 -4 0 -3 -5 1 -12 4
-7 3 -8 -4 -4 -6 4 -8 14 -5 23 4 10 2 14 -4 10 -6 -4 -10 1 -9 11 0 9 -4 16
-11 15 -7 -2 -10 3 -7 10 2 7 -3 21 -12 32 -8 11 -12 14 -8 6 4 -9 3 -12 -4
-7 -6 4 -9 12 -6 19 4 12 -70 127 -83 127 -3 0 1 -8 8 -17 13 -16 12 -17 -3
-4 -10 7 -15 17 -12 22 21 34 -384 454 -417 433 -7 -4 -9 -3 -6 3 8 13 -18 37
-31 29 -6 -3 -16 2 -23 12 -13 15 -12 16 4 3 9 -7 17 -11 17 -8 0 13 -155 117
-166 113 -8 -3 -16 0 -20 6 -5 7 -2 8 7 4 8 -4 5 0 -6 8 -11 9 -25 14 -32 12
-7 -3 -15 0 -19 6 -5 7 -2 8 7 4 8 -4 5 0 -6 8 -11 9 -25 14 -32 12 -7 -3 -15
0 -19 6 -4 7 -3 8 4 4 7 -4 12 -5 12 -2 0 12 -121 66 -132 60 -6 -4 -8 -3 -5
3 8 13 -20 26 -35 16 -7 -4 -8 -1 -3 7 6 10 4 12 -9 7 -9 -4 -15 -3 -12 2 8
12 -70 45 -85 36 -8 -6 -10 -4 -4 5 6 10 3 12 -13 8 -12 -4 -20 -2 -17 2 7 12
-32 23 -46 14 -8 -5 -9 -3 -4 6 6 10 3 12 -13 8 -14 -4 -20 -2 -15 5 4 6 -2 8
-15 5 -12 -4 -20 -2 -17 2 7 12 -32 23 -46 14 -8 -5 -9 -3 -4 6 6 10 3 12 -13
8 -14 -4 -20 -2 -16 4 5 7 -2 9 -19 6 -16 -3 -24 -1 -20 5 4 6 -4 8 -20 5 -16
-3 -24 -1 -20 5 4 6 -4 8 -20 5 -16 -3 -24 -1 -20 5 4 6 -4 8 -20 5 -16 -3
-24 -1 -20 5 4 6 -4 8 -20 5 -16 -3 -24 -1 -20 5 4 6 -4 8 -20 5 -16 -3 -24
-1 -20 5 3 6 -8 8 -30 5 -20 -2 -33 0 -30 5 3 6 -10 8 -30 5 -20 -2 -34 -1
-32 3 7 10 -86 19 -284 26 -111 4 -182 3 -179 -3z m-1232 -428 c0 -2 -8 -10
-17 -17 -16 -13 -17 -12 -4 4 13 16 21 21 21 13z m2741 -13 c13 -16 12 -17 -3
-4 -17 13 -22 21 -14 21 2 0 10 -8 17 -17z m40 -30 c13 -16 12 -17 -3 -4 -17
13 -22 21 -14 21 2 0 10 -8 17 -17z m-2901 -47 c0 -2 -8 -10 -17 -17 -16 -13
-17 -12 -4 4 13 16 21 21 21 13z m-40 -29 c0 -2 -12 -14 -27 -28 l-28 -24 24
28 c23 25 31 32 31 24z m3070 -22 c13 -14 21 -25 18 -25 -2 0 -15 11 -28 25
-13 14 -21 25 -18 25 2 0 15 -11 28 -25z m-3130 -28 c0 -2 -12 -14 -27 -28
l-28 -24 24 28 c23 25 31 32 31 24z m3200 -32 c19 -19 32 -35 29 -35 -3 0 -20
16 -39 35 -19 19 -32 35 -29 35 3 0 20 -16 39 -35z m-3280 -39 c0 -2 -8 -10
-17 -17 -16 -13 -17 -12 -4 4 13 16 21 21 21 13z m3365 -36 c21 -22 37 -40 34
-40 -3 0 -23 18 -44 40 -21 22 -37 40 -34 40 3 0 23 -18 44 -40z m-3405 -3 c0
-2 -10 -12 -22 -23 l-23 -19 19 23 c18 21 26 27 26 19z m-40 -50 c0 -2 -17
-19 -37 -38 l-38 -34 34 38 c33 34 41 42 41 34z m3526 -39 l29 -33 -32 29
c-31 28 -38 36 -30 36 2 0 16 -15 33 -32z m-3596 -41 c0 -2 -12 -14 -27 -28
l-28 -24 24 28 c23 25 31 32 31 24z m3655 -27 c10 -11 16 -20 13 -20 -3 0 -13
9 -23 20 -10 11 -16 20 -13 20 3 0 13 -9 23 -20z m-3705 -34 c0 -2 -8 -10 -17
-17 -16 -13 -17 -12 -4 4 13 16 21 21 21 13z m3741 -13 c13 -16 12 -17 -3 -4
-10 7 -18 15 -18 17 0 8 8 3 21 -13z m-3771 -27 c0 -2 -8 -10 -17 -17 -16 -13
-17 -12 -4 4 13 16 21 21 21 13z m-30 -40 c0 -2 -8 -10 -17 -17 -16 -13 -17
-12 -4 4 13 16 21 21 21 13z m-30 -40 c0 -2 -8 -10 -17 -17 -16 -13 -17 -12
-4 4 13 16 21 21 21 13z m3921 -13 c13 -16 12 -17 -3 -4 -17 13 -22 21 -14 21
2 0 10 -8 17 -17z m9 -2737 c0 -2 -8 -10 -17 -17 -16 -13 -17 -12 -4 4 13 16
21 21 21 13z m-3909 -53 c13 -16 12 -17 -3 -4 -10 7 -18 15 -18 17 0 8 8 3 21
-13z m3879 13 c0 -2 -8 -10 -17 -17 -16 -13 -17 -12 -4 4 13 16 21 21 21 13z
m-3849 -53 c13 -16 12 -17 -3 -4 -10 7 -18 15 -18 17 0 8 8 3 21 -13z m3819
13 c0 -2 -8 -10 -17 -17 -16 -13 -17 -12 -4 4 13 16 21 21 21 13z m-3789 -53
c13 -16 12 -17 -3 -4 -10 7 -18 15 -18 17 0 8 8 3 21 -13z m3759 13 c0 -2 -8
-10 -17 -17 -16 -13 -17 -12 -4 4 13 16 21 21 21 13z m-3720 -61 c13 -14 21
-25 18 -25 -2 0 -15 11 -28 25 -13 14 -21 25 -18 25 2 0 15 -11 28 -25z m3690
22 c0 -2 -12 -14 -27 -28 l-28 -24 24 28 c23 25 31 32 31 24z m-3649 -74 c13
-16 12 -17 -3 -4 -10 7 -18 15 -18 17 0 8 8 3 21 -13z m74 -83 c10 -11 16 -20
13 -20 -3 0 -13 9 -23 20 -10 11 -16 20 -13 20 3 0 13 -9 23 -20z m3445 7 c0
-2 -17 -19 -37 -38 l-38 -34 34 38 c33 34 41 42 41 34z m-80 -70 c0 -2 -17
-19 -37 -38 l-38 -34 34 38 c33 34 41 42 41 34z m-3239 -54 c13 -16 12 -17 -3
-4 -10 7 -18 15 -18 17 0 8 8 3 21 -13z m3159 -16 c0 -2 -12 -14 -27 -28 l-28
-24 24 28 c23 25 31 32 31 24z m-60 -51 c0 -2 -8 -10 -17 -17 -16 -13 -17 -12
-4 4 13 16 21 21 21 13z m-40 -30 c0 -2 -8 -10 -17 -17 -16 -13 -17 -12 -4 4
13 16 21 21 21 13z m-40 -30 c0 -2 -8 -10 -17 -17 -16 -13 -17 -12 -4 4 13 16
21 21 21 13z m-2799 -43 c13 -16 12 -17 -3 -4 -10 7 -18 15 -18 17 0 8 8 3 21
-13z m2759 13 c0 -2 -8 -10 -17 -17 -16 -13 -17 -12 -4 4 13 16 21 21 21 13z"/>
</g>
</svg>
